<svg width="17" height="17" viewBox="0 0 17 17" fill="none" xmlns="http://www.w3.org/2000/svg">
<path d="M8.41351 11.4315C7.85705 11.4315 7.34956 11.2957 6.89104 11.0241C6.43697 10.7526 6.07416 10.3875 5.80261 9.92902C5.53551 9.4705 5.39973 8.96523 5.39528 8.41323C5.39083 7.85677 5.52438 7.35151 5.79593 6.89744C6.06748 6.43892 6.43252 6.07388 6.89104 5.80233C7.34956 5.53078 7.85705 5.395 8.41351 5.395C8.96551 5.395 9.47078 5.53078 9.9293 5.80233C10.3878 6.07388 10.7529 6.43892 11.0244 6.89744C11.3004 7.35151 11.4362 7.85677 11.4317 8.41323C11.4273 8.96523 11.2893 9.4705 11.0177 9.92902C10.7462 10.3875 10.3811 10.7526 9.92262 11.0241C9.46855 11.2957 8.96551 11.4315 8.41351 11.4315ZM7.65895 4.0595V-0.000409508H9.16806V4.0595H7.65895ZM12.0194 5.87578L10.951 4.80738L13.8356 1.92271L14.904 2.99111L12.0194 5.87578ZM12.7672 9.16778V7.65867H16.8271V9.16778H12.7672ZM13.8356 14.9037L10.951 12.0191L12.0194 10.9507L14.904 13.8353L13.8356 14.9037ZM7.65895 16.8269V12.767H9.16806V16.8269H7.65895ZM2.99139 14.9037L1.92299 13.8353L4.80766 10.9507L5.87606 12.0191L2.99139 14.9037ZM-0.000130048 9.16778V7.65867H4.05978V9.16778H-0.000130048ZM4.80766 5.87578L1.92299 2.99111L2.99139 1.92271L5.87606 4.80738L4.80766 5.87578Z" fill="white"/>
</svg>
